<svg xmlns="http://www.w3.org/2000/svg" viewBox="0 0 290 40" fill="#0a0a0a">
  <!-- E -->
  <path d="M0 0h5v40H0zM0 0h24v5H0zM0 17.5h18v5H0zM0 35h24v5H0z"/>
  <!-- L -->
  <path d="M32 0h5v40h-5zM32 35h24v5H32z"/>
  <!-- A no crossbar -->
  <path d="M89 40h-5.5L68 0h5.5L84 33.5 94.5 0H100z"/>
  <!-- V -->
  <path d="M105 0h5.5L121 33.5 131.5 0H137L126.5 40h-11z"/>
  <!-- A no crossbar -->
  <path d="M176 40h-5.5L155 0h5.5L171 33.5 181.5 0H187z"/>
  <!-- I -->
  <path d="M195 0h5v40h-5z"/>
</svg>