<svg xmlns="http://www.w3.org/2000/svg" viewBox="0 0 480 80" fill="#1c1917">
  <!-- E -->
  <path d="M0 0h40v14H16v18h20v14H16v18h24v14H0z"/>
  <!-- L -->
  <path d="M56 0h16v64h24v14H56z"/>
  <!-- A (no crossbar — inverted V) -->
  <path d="M128 78L108 0h17l15 54L155 0h17L152 78h-24z"/>
  <!-- V -->
  <path d="M186 0h17l15 54L233 0h17L230 78h-24z"/>
  <!-- space -->
  <!-- A (no crossbar — inverted V) -->
  <path d="M296 78L276 0h17l15 54L323 0h17L320 78h-24z"/>
  <!-- I -->
  <path d="M352 0h16v78h-16z"/>
</svg>