<svg xmlns="http://www.w3.org/2000/svg" viewBox="0 0 440 80" fill="#1c1917">
  <!-- E: 3 bars -->
  <rect x="0" y="0" width="8" height="80"/>
  <rect x="0" y="0" width="40" height="8"/>
  <rect x="0" y="36" width="32" height="8"/>
  <rect x="0" y="72" width="40" height="8"/>

  <!-- L -->
  <rect x="54" y="0" width="8" height="80"/>
  <rect x="54" y="72" width="40" height="8"/>

  <!-- A (no crossbar): peak at TOP, open legs at bottom -->
  <polygon points="126,80 118,80 143,0 151,0 176,80 168,80 147,12"/>

  <!-- V: peak at BOTTOM, open legs at top -->
  <polygon points="186,0 194,0 211,68 228,0 236,0 217,80 205,80"/>

  <!-- gap -->

  <!-- A (no crossbar): same as first A -->
  <polygon points="288,80 280,80 305,0 313,0 338,80 330,80 309,12"/>

  <!-- I -->
  <rect x="352" y="0" width="8" height="80"/>
</svg>