<svg xmlns="http://www.w3.org/2000/svg" viewBox="0 0 520 90" fill="#1c1917">
  <!-- E - bold condensed -->
  <path d="M0 0h50v16H20v21h26v16H20v21h30v16H0z"/>
  <!-- L - bold condensed -->
  <path d="M62 0h20v74h30v16H62z"/>
  <!-- A - sharp peak, no crossbar, knife-like -->
  <path d="M152 90L122 0h22l20 62L184 0h22L176 90h-24z"/>
  <!-- V - sharp, mirrors A -->
  <path d="M208 0h22l20 62L270 0h22L260 90h-24z"/>
  <!-- space 28px -->
  <!-- A - sharp peak, no crossbar -->
  <path d="M340 90L310 0h22l20 62L372 0h22L364 90h-24z"/>
  <!-- I - bold condensed -->
  <path d="M400 0h20v90h-20z"/>
</svg>