<svg xmlns="http://www.w3.org/2000/svg" viewBox="0 0 24 24"><path d="M4.96 17.338c-1.092 0-2.17-.576-2.71-1.61-.77-1.47-.198-3.29 1.273-4.06l6.36-3.33c1.47-.77 3.29-.198 4.06 1.273.77 1.47.198 3.29-1.273 4.06l-6.36 3.33c-.43.225-.897.337-1.35.337z" fill="#FF3D57"/><path d="M13.2 17.338c-1.092 0-2.17-.576-2.71-1.61-.77-1.47-.198-3.29 1.273-4.06l6.36-3.33c1.47-.77 3.29-.198 4.06 1.273.77 1.47.198 3.29-1.273 4.06l-6.36 3.33c-.43.225-.897.337-1.35.337z" fill="#FFCB00"/><circle cx="21.15" cy="17" r="2.85" fill="#00CA72"/></svg>
