<svg xmlns="http://www.w3.org/2000/svg" viewBox="0 0 24 24" fill="#00A1E0"><path d="M10.006 5.415a4.195 4.195 0 0 1 3.045-1.306c1.56 0 2.926.854 3.65 2.12a5.027 5.027 0 0 1 2.12-.468c2.825 0 5.114 2.33 5.114 5.203 0 2.874-2.29 5.204-5.115 5.204-.38 0-.748-.043-1.103-.124a3.784 3.784 0 0 1-3.343 2.012c-.534 0-1.04-.112-1.498-.313a4.395 4.395 0 0 1-3.847 2.288c-1.962 0-3.622-1.29-4.18-3.065a4.042 4.042 0 0 1-.95.113C1.7 17.079 0 15.35 0 13.203c0-1.457.8-2.726 1.984-3.39A4.437 4.437 0 0 1 1.6 8.178c0-2.43 1.932-4.402 4.316-4.402 1.31 0 2.486.59 3.274 1.521l.816.118z"/></svg>
